<?xml version="1.0" encoding="iso-8859-1"?>
<!-- Uploaded to: SVG Repo, www.svgrepo.com, Generator: SVG Repo Mixer Tools -->
<svg fill="#000000" height="800px" width="800px" version="1.1" id="Layer_1" xmlns="http://www.w3.org/2000/svg" xmlns:xlink="http://www.w3.org/1999/xlink" 
	 viewBox="0 0 488.1 488.1" xml:space="preserve">
<g transform="translate(0 -540.36)">
	<g>
		<g>
			<path d="M400.1,919.11c-9.4,7.7-26.1,18.4-34.1,18.4c-4.1,0-9.1-4-14.4-8.3c-7.2-5.7-15.3-12.3-26-12.3
				c-11.1,0-19.4,6.6-26.8,12.5c-5.3,4.1-10.3,8.1-14.4,8.1c-4.1,0-8.9-3.9-13.9-8c-7.2-5.9-15.3-12.6-26.5-12.6
				c-11.2,0-19.3,6.7-26.5,12.6c-5.1,4.1-9.9,8-13.9,8c-4.2,0-9.1-3.9-14.4-8.1c-7.3-5.9-15.7-12.5-26.8-12.5
				c-10.7,0-18.8,6.5-26,12.3c-5.2,4.3-10.2,8.3-14.4,8.3c-8.1,0-24.8-10.8-34.1-18.4c-4.3-3.5-10.6-2.9-14.1,1.4
				s-2.9,10.6,1.4,14.1c4.6,3.8,28.8,22.9,46.7,22.9c11.2,0,19.6-6.7,27-12.7c4.8-3.9,9.8-7.9,13.4-7.9c4.2,0,9.1,3.9,14.4,8.1
				c7.3,5.9,15.7,12.5,26.8,12.5c11.2,0,19.3-6.7,26.5-12.6c5.1-4.1,9.9-8,13.9-8c4.1,0,8.9,3.9,13.9,8c7.2,5.9,15.3,12.6,26.5,12.6
				c11.1,0,19.4-6.6,26.8-12.5c5.3-4.1,10.3-8.1,14.4-8.1c3.6,0,8.6,4,13.4,7.9c7.4,5.9,15.7,12.7,27,12.7c17.9,0,42-19,46.9-22.9
				c4.3-3.5,4.9-9.8,1.4-14.1C410.7,916.21,404.4,915.61,400.1,919.11z"/>
			<path d="M400.1,980.31c-9.4,7.7-26.1,18.4-34.1,18.4c-4.1,0-9.1-4-14.4-8.3c-7.2-5.7-15.3-12.3-26-12.3
				c-11.1,0-19.4,6.6-26.8,12.5c-5.3,4.1-10.3,8.1-14.4,8.1c-4.1,0-8.9-3.9-13.9-8c-7.2-5.9-15.3-12.6-26.5-12.6
				c-11.2,0-19.3,6.7-26.5,12.6c-5.1,4.1-9.9,8-13.9,8c-4.2,0-9.1-3.9-14.4-8.1c-7.3-5.9-15.7-12.5-26.8-12.5
				c-10.7,0-18.8,6.5-26,12.3c-5.2,4.3-10.2,8.3-14.4,8.3c-8.1,0-24.8-10.8-34.1-18.4c-4.3-3.5-10.6-2.9-14.1,1.4
				s-2.9,10.6,1.4,14.1c4.6,3.8,28.8,22.9,46.7,22.9c11.2,0,19.6-6.7,27-12.7c4.8-3.9,9.8-7.9,13.4-7.9c4.2,0,9.1,3.9,14.4,8.1
				c7.3,5.9,15.7,12.5,26.8,12.5c11.2,0,19.3-6.7,26.5-12.6c5.1-4.1,9.9-8,13.9-8c4.1,0,8.9,3.9,13.9,8c7.2,5.9,15.3,12.6,26.5,12.6
				c11.1,0,19.4-6.6,26.8-12.5c5.3-4.1,10.3-8.1,14.4-8.1c3.6,0,8.6,4,13.4,7.9c7.4,5.9,15.7,12.7,27,12.7v0
				c17.9,0,42-19.1,46.9-22.9c4.3-3.5,4.9-9.8,1.4-14.1C410.7,977.41,404.4,976.81,400.1,980.31z"/>
			<path d="M396.3,611.31L396.3,611.31c-8,0-16.6,1.3-24.7,3.7c-21.5-39.7-62.6-64.9-107.1-64.9c-26.3,0-51.1,8-71.8,23.1
				c-18.3,13.4-32.2,31.4-40.5,52.4c-9.7-2.5-19.8-3.8-30.2-3.8c-67.3,0-122,54.5-122,121.6c0,67.4,54.8,122.3,122,122.3h131.9
				c43.5,0,80-30.6,89.3-71.4l53.3,0.3c50.5,0,91.6-41.2,91.6-91.8C487.9,652.41,446.8,611.31,396.3,611.31z M253.8,845.81
				L253.8,845.81l-131.9,0c-56.3,0-102-45.9-102-102.3c0-56,45.8-101.6,102-101.6c40.6,0,77.1,23.7,93,60.4
				c2.1,4.9,7.8,7.3,12.8,5.4c8.2-3.1,16.7-4.7,26.1-4.7c39.5,0,71.6,31.8,71.6,71C325.4,813.71,293.3,845.81,253.8,845.81z
				 M396.4,774.81l-51-0.3c0-0.1,0-0.2,0-0.4c0-24.4-9.5-47.4-26.9-64.5c-17.3-17.1-40.2-26.5-64.7-26.5c-8.6,0-16.7,1-24.5,3.1
				c-12.8-24.4-33.5-43.2-58.2-54c15.3-37.4,51.9-62.1,93.4-62.1c39.7,0,76.2,24.1,93,61.4c2.2,4.9,8,7.2,13,5.1
				c8.1-3.4,17.6-5.3,25.9-5.3c39.5,0,71.6,32.2,71.6,71.8S435.8,774.81,396.4,774.81z"/>
		</g>
	</g>
</g>
</svg>